<svg width="362" height="192" viewBox="0 0 362 192" fill="none" xmlns="http://www.w3.org/2000/svg">
<path d="M66.9973 23.341L44.2805 47.6254C43.4563 48.5051 43.4563 49.9463 44.3004 50.8248C45.1011 51.7032 46.4493 51.7032 47.2723 50.8248L69.9904 26.5404C70.8134 25.6607 70.8134 24.2182 69.9904 23.3636C69.1685 22.4613 67.8203 22.4613 66.9973 23.341Z" fill="#100F0D"/>
<path d="M168.241 114.578V113.362L167.673 113.969L168.241 114.578Z" fill="#ED1D24"/>
<path d="M146.723 185.024L140.717 191.444H146.703L149.716 188.223C150.539 187.344 150.539 185.9 149.716 185.024C148.896 184.144 147.546 184.144 146.723 185.024Z" fill="#ED1D24"/>
<path d="M141.329 158.079L138.694 160.896C137.615 162.049 137.615 163.841 138.694 164.995L142.484 169.046C143.565 170.202 143.562 171.998 142.478 173.151L142.343 173.295C141.155 174.558 139.147 174.554 137.964 173.286L134.732 169.821C133.547 168.551 131.534 168.55 130.347 169.818L113.557 187.766C112.251 189.162 113.241 191.444 115.153 191.444C115.758 191.444 116.335 191.193 116.749 190.752L130.344 176.219C131.532 174.949 133.547 174.952 134.731 176.224L135.249 176.78C136.322 177.934 136.32 179.722 135.243 180.873L128.867 187.689C127.534 189.114 128.545 191.444 130.497 191.444C131.114 191.444 131.704 191.188 132.126 190.737L155.07 166.21C156.255 164.943 158.265 164.943 159.451 166.21L159.961 166.755C161.039 167.908 161.041 169.699 159.963 170.852L153.765 177.492C152.988 178.324 153.192 179.647 153.952 180.495C155.565 182.218 156.409 184.464 156.478 186.736C156.546 188.968 158.084 191.444 160.318 191.444H165.241C166.897 191.444 168.241 190.101 168.241 188.444V137.202C168.241 134.49 164.928 133.17 163.063 135.138L141.329 158.079Z" fill="#ED1D24"/>
<path d="M86.1969 184.303L79.5168 191.444H85.5017L89.1899 187.501C90.0106 186.622 90.0106 185.203 89.1899 184.326C88.3681 183.422 87.0187 183.422 86.1969 184.303Z" fill="#100F0D"/>
<path d="M73.2352 103.268C72.4134 102.368 71.0664 102.368 70.2434 103.247L17.5984 159.522C16.7755 160.4 16.7755 161.841 17.5984 162.743C18.4203 163.623 19.7685 163.623 20.5915 162.721L73.2352 106.445C74.0582 105.567 74.0582 104.126 73.2352 103.268Z" fill="#100F0D"/>
<path d="M57.9355 86.9138C57.1137 86.0353 55.7643 86.0353 54.9425 86.9138L0.000915527 145.643V152.042L57.9355 90.112C58.7562 89.2347 58.7562 87.7923 57.9355 86.9138Z" fill="#100F0D"/>
<path d="M102.578 116.058C101.24 117.489 98.9712 117.489 97.6332 116.058C96.4154 114.757 96.4156 112.733 97.6336 111.432L153.468 51.7708C154.289 50.8923 154.289 49.4499 153.468 48.5714C152.644 47.6929 151.297 47.6929 150.475 48.5714L94.9366 107.916C93.6049 109.339 91.3472 109.339 90.0157 107.916C88.804 106.62 88.8038 104.608 90.0152 103.312L145.437 44.0436C145.588 43.8866 145.712 43.7122 145.809 43.5266C146.561 42.0871 146.314 39.9304 147.423 38.7446L147.476 38.6886C148.677 37.405 150.775 37.4316 151.449 39.0551C151.993 40.3645 153.13 41.3737 154.459 41.8678C155.644 42.3084 156.756 43.03 157.704 44.0436C161.074 47.6478 161.074 53.5278 157.704 57.1332L102.578 116.058ZM113.114 123.404C111.969 124.628 110.029 124.63 108.882 123.409C107.834 122.294 107.832 120.558 108.877 119.44L111.722 116.399C112.87 115.171 114.819 115.174 115.964 116.405C117.003 117.521 117.001 119.251 115.959 120.364L113.114 123.404ZM92.7702 128.164L67.2032 155.493C65.871 156.917 63.6119 156.917 62.2798 155.492C61.0682 154.197 61.0679 152.184 62.2793 150.888L88.5356 122.8C89.3586 121.921 89.3586 120.481 88.5356 119.601C87.7138 118.724 86.3632 118.724 85.5426 119.601L30.0266 178.944C28.6938 180.368 26.4348 180.371 25.0986 178.949C23.8785 177.651 23.8761 175.629 25.0931 174.328L80.5272 115.073C80.6688 114.922 80.7859 114.754 80.8787 114.576C81.627 113.138 81.3833 110.977 82.4877 109.79L82.5487 109.725C83.7425 108.442 85.848 108.477 86.5253 110.093C87.0723 111.398 88.2033 112.404 89.5296 112.898C90.7139 113.338 91.8243 114.06 92.7702 115.073C96.1642 118.701 96.1442 124.56 92.7702 128.164ZM13.3415 167.291C9.96742 163.688 9.9897 157.765 13.3614 154.158L65.2279 98.7192C68.5984 95.1137 74.0992 95.1137 77.4908 98.7192C80.8649 102.343 80.8649 108.203 77.4709 111.831L25.6079 167.247C22.2339 170.874 16.7343 170.898 13.3415 167.291ZM141.047 32.3822C142.385 30.9515 144.654 30.9514 145.992 32.3818C147.21 33.6834 147.21 35.7062 145.992 37.0078L87.2985 99.7471C85.9615 101.176 83.6935 101.174 82.3594 99.7421C81.1488 98.4428 81.1507 96.4282 82.3637 95.1312L141.047 32.3822ZM150.87 21.8897C152.206 20.4567 154.476 20.4549 155.815 21.8857C157.032 23.1862 157.032 25.2074 155.815 26.508L153.623 28.8508C152.285 30.2815 150.014 30.2785 148.68 28.8443C147.471 27.5455 147.472 25.5335 148.682 24.2361L150.87 21.8897ZM166.356 72.7794C167.567 71.4829 168.241 69.7746 168.241 68.0002V18.6035C168.241 14.7375 165.107 11.6035 161.241 11.6035H142.081C140.216 11.6035 138.435 12.3762 137.162 13.7377L136.671 14.2619C134.525 16.5565 134.525 20.1224 136.671 22.417L138.509 24.3808C139.621 25.57 139.621 27.418 138.509 28.6073C137.286 29.9145 135.213 29.9146 133.99 28.6074L132.435 26.9448C130.371 24.7382 126.871 24.738 124.807 26.9445L74.8799 80.3135C74.0569 81.192 74.0569 82.6332 74.8799 83.5342C75.7006 84.3914 77.0488 84.3914 77.8718 83.5117L126.149 31.9076C127.486 30.4775 129.755 30.4778 131.093 31.9083C132.31 33.2098 132.309 35.232 131.092 36.533L82.8872 88.0395C79.5143 91.6674 73.9948 91.69 70.6219 88.0846C67.2502 84.4578 67.2713 78.5553 70.6419 74.9524L125.834 15.9334C127.372 14.2895 126.206 11.6035 123.955 11.6035C122.714 11.6035 121.684 12.5112 121.183 13.6477C120.766 14.5952 120.186 15.4822 119.452 16.2666L93.8947 43.586C92.5576 45.0153 90.2894 45.0124 88.956 43.5798C87.7468 42.2807 87.7494 40.2673 88.9618 38.9713L111.11 15.296C112.421 13.8943 111.427 11.6035 109.508 11.6035C108.901 11.6035 108.321 11.8553 107.906 12.2989L56.7193 67.0369C55.3817 68.4673 53.113 68.4677 51.7749 67.0377C50.5571 65.7363 50.557 63.7137 51.7746 62.4121L95.8029 15.3471C97.1323 13.926 96.1246 11.6035 94.1787 11.6035C93.5629 11.6035 92.9746 11.8588 92.5541 12.3086L52.3085 55.3524C52.1612 55.5057 52.0403 55.676 51.9454 55.8575C51.1906 57.3008 51.4268 59.494 50.314 60.6833C49.1106 61.9693 46.9877 61.9639 46.3043 60.3406C45.7533 59.0318 44.6154 58.0202 43.2814 57.5331C42.0916 57.0986 40.9671 56.386 40.0221 55.375C36.6492 51.7708 36.6715 45.8683 40.0432 42.2415L61.9605 18.8119C65.3322 15.209 70.854 15.209 74.2258 18.8119C74.9536 19.6242 76.295 19.7994 77.0401 19.0029L80.5212 15.2818C81.8274 13.8855 80.8373 11.6035 78.9253 11.6035C78.3205 11.6035 77.7428 11.8541 77.3296 12.2957L76.9234 12.7297C75.52 14.2294 73.1406 14.229 71.7377 12.7289C71.0663 12.011 70.1273 11.6035 69.1444 11.6035H65.8194C63.8819 11.6035 62.0311 12.4065 60.7075 13.8214L33.8111 42.5722C32.4739 44.0016 30.2057 43.999 28.8718 42.5666C27.6617 41.2672 27.664 39.2529 28.8771 37.9563L50.0888 15.2831C51.3956 13.8863 50.4052 11.6035 48.4925 11.6035C47.8874 11.6035 47.3094 11.8543 46.896 12.2962L26.2029 34.417C24.8651 35.8472 22.5965 35.8475 21.2582 34.4177C20.0399 33.1161 20.0397 31.0927 21.2577 29.7908L34.8318 15.2817C36.138 13.8855 35.148 11.6035 33.236 11.6035C32.6313 11.6035 32.0535 11.8541 31.6403 12.2958L18.5734 26.2616C17.2355 27.6915 14.967 27.6915 13.6292 26.2614C12.4117 24.96 12.4117 22.9375 13.6292 21.636L14.7999 20.3846C17.9182 17.0513 15.5546 11.6035 10.9901 11.6035H6.96386C3.11783 11.6035 0 14.7213 0 18.5674V118.006C0 124.355 7.77298 127.425 12.111 122.789L63.0069 68.4028C64.3443 66.9737 66.6124 66.9766 67.9462 68.4092C69.1558 69.7085 69.1535 71.7225 67.9408 73.0189L61.9858 79.3852C61.2084 80.2163 61.4093 81.5401 62.1715 82.385C65.5655 85.9905 65.5655 91.8705 62.1715 95.4746L5.95812 155.587C5.22023 156.376 3.96869 156.376 3.23075 155.587C2.07384 154.35 0 155.169 0 156.862V184.444C0 188.31 3.13401 191.444 7 191.444H36.6467C38.5846 191.444 40.4357 190.641 41.7594 189.225L99.0659 127.946C100.404 126.515 102.673 126.515 104.011 127.945C105.229 129.247 105.229 131.27 104.011 132.571L52.3765 187.766C51.0703 189.162 52.0604 191.444 53.9723 191.444C54.5772 191.444 55.155 191.193 55.5682 190.752L106.694 136.099C108.032 134.669 110.301 134.669 111.64 136.099C112.858 137.401 112.858 139.425 111.639 140.726L67.6757 187.702C66.3467 189.122 67.3536 191.444 69.2987 191.444C69.914 191.444 70.5017 191.189 70.922 190.74L81.179 179.774C84.5531 176.169 90.0515 176.169 93.4255 179.797C94.1924 180.586 95.5044 180.772 96.256 179.968L119.137 155.511C119.958 154.634 119.958 153.19 119.137 152.312C118.314 151.435 116.965 151.435 116.145 152.312L95.9921 173.833C94.6595 175.256 92.401 175.255 91.0693 173.831C89.8572 172.535 89.8573 170.522 91.0695 169.226L111.127 147.783C114.5 144.179 120.001 144.179 123.372 147.783C126.744 151.388 126.744 157.268 123.372 160.872L98.276 187.7C96.9465 189.121 97.9542 191.444 99.9003 191.444C100.516 191.444 101.104 191.189 101.525 190.739L141.961 147.515L164.931 123.297C165.754 122.417 165.754 121 164.931 120.12C164.122 119.254 162.749 119.254 161.939 120.119L136.339 147.484C135.001 148.915 132.732 148.914 131.394 147.484C130.177 146.182 130.177 144.16 131.395 142.859L167.641 104.112C168.027 103.7 168.241 103.157 168.241 102.593C168.241 100.576 165.772 99.6013 164.394 101.074L163.554 101.971C162.486 103.113 160.674 103.115 159.603 101.975L159.114 101.455C157.893 100.157 157.891 98.1342 159.108 96.8332L167.65 87.7038C168.03 87.2978 168.241 86.7627 168.241 86.2068C168.241 84.2187 165.806 83.2583 164.449 84.7111L153.847 96.0599C153.025 96.9384 153.025 98.3808 153.847 99.2605C157.217 102.863 157.217 108.745 153.847 112.348L131.928 135.777C128.557 139.405 123.035 139.427 119.664 135.824C116.27 132.217 116.29 126.294 119.684 122.69L139.416 101.597C140.749 100.172 143.008 100.17 144.343 101.591C145.563 102.889 145.565 104.91 144.348 106.211L123.92 128.049C123.098 128.929 123.098 130.37 123.92 131.272C124.743 132.149 126.07 132.128 126.912 131.248L149.611 106.985C150.432 106.105 150.432 104.668 149.611 103.788C146.238 100.184 146.238 94.3029 149.611 90.6987L166.356 72.7794Z" fill="#100F0D"/>
<path d="M204.818 94.3297C204.818 95.9208 206.108 97.2107 207.699 97.2107C209.29 97.2107 210.58 95.9208 210.58 94.3297V20.6683C210.58 19.8086 210.46 18.9928 210.239 18.2208C209.256 14.9387 206.343 12.5326 202.95 12.5326C199.973 12.5326 196.454 12.5326 193.477 12.5326C192.319 12.5326 191.219 12.8123 190.233 13.3142C189.099 13.8918 187.728 13.976 186.54 13.5195C185.215 13.0107 184 14.199 184 15.6178V15.861C184 17.4142 185.696 18.9035 185.857 20.4482C185.865 20.5205 185.869 20.594 185.869 20.6683L185.77 93.2381V187.566C185.77 189.158 187.061 190.448 188.653 190.448C190.244 190.448 191.535 189.158 191.535 187.566V113.388C191.535 112.297 192.355 111.394 193.399 111.394C194.426 111.394 195.248 112.297 195.248 113.388V187.568C195.248 189.159 196.537 190.448 198.128 190.448C199.718 190.448 201.007 189.159 201.007 187.568V113.907C201.007 112.467 200.666 111.112 200.024 109.933C198.739 107.447 196.251 105.771 193.399 105.771C192.456 105.771 191.545 105.084 191.555 104.142L191.629 97.2107V20.1507C191.629 19.0579 192.45 18.1556 193.477 18.1556C194.5 18.1556 195.344 19.0579 195.344 20.1507V94.3297C195.344 95.9208 196.634 97.2107 198.225 97.2107C199.816 97.2107 201.106 95.9208 201.106 94.3297V20.1507C201.106 19.0579 201.928 18.1556 202.95 18.1556C203.974 18.1556 204.818 19.0579 204.818 20.1507V94.3297Z" fill="#100F0D"/>
<path d="M221.858 92.1024C220.838 92.1024 219.993 91.2001 219.993 90.1073V59.9367C219.993 58.8401 220.838 57.9391 221.858 57.9391C222.866 57.9391 223.707 58.8201 223.729 59.8916V59.9367V90.1073C223.729 91.2001 222.885 92.1024 221.858 92.1024ZM225.105 96.9561C226.236 96.3689 227.615 96.2845 228.804 96.7396C230.129 97.2463 231.335 96.0605 231.335 94.6421V93.3717C231.335 92.3744 230.381 91.5492 229.813 90.7301C229.591 90.4081 229.469 90.0233 229.469 89.5922V20.6679C229.469 17.8959 228.164 15.4296 226.181 13.9696C225.784 13.6774 225.387 13.4215 224.934 13.2283C224.92 13.2221 224.913 13.2174 224.9 13.2086C224.887 13.2002 224.864 13.1956 224.85 13.1893C223.935 12.768 222.92 12.5322 221.858 12.5322C217.668 12.5322 214.252 16.1815 214.252 20.6679V47.3025C214.252 48.8879 215.537 50.1731 217.122 50.1731C218.708 50.1731 219.993 48.8879 219.993 47.3025V20.1504C219.993 19.0576 220.838 18.1553 221.858 18.1553C222.645 18.1553 223.326 18.6916 223.61 19.4436C223.688 19.6566 223.729 19.8947 223.729 20.1504V50.6796C223.729 51.6296 222.808 52.3185 221.858 52.3185C217.668 52.3185 214.252 55.9653 214.252 60.4492V89.5922C214.252 94.0761 217.668 97.7681 221.858 97.7681C222.402 97.7681 222.928 97.7029 223.427 97.5763C224.017 97.4408 224.579 97.2298 225.105 96.9561Z" fill="#100F0D"/>
<path d="M245.6 57.8985C247.19 57.8985 248.479 56.6097 248.479 55.0198V20.6687C248.479 19.1849 248.119 17.8327 247.475 16.6322C246.172 14.1859 243.703 12.533 240.873 12.533C239.486 12.533 238.224 12.919 237.118 13.6032C236.318 14.0935 235.293 14.1524 234.446 13.7507C233.724 13.4083 232.948 13.1815 232.122 13.0932C231.723 13.054 231.398 13.3732 231.398 13.7743V18.0801C231.398 18.4072 231.67 18.6672 231.978 18.7764C232.724 19.037 233.244 19.7865 233.244 20.6687V94.3301C233.244 95.9213 234.534 97.2112 236.125 97.2112C237.716 97.2112 239.006 95.9213 239.006 94.3301V20.1511C239.006 19.0571 239.846 18.1561 240.873 18.1561C241.894 18.1561 242.721 19.0571 242.721 20.1511V55.0198C242.721 56.6097 244.01 57.8985 245.6 57.8985Z" fill="#100F0D"/>
<path d="M267.332 91.2006C267.43 90.6842 267.49 90.1491 267.49 89.5927V25.5409C267.49 23.9504 266.201 22.661 264.61 22.661C263.019 22.661 261.73 23.9504 261.73 25.5409V90.1065C261.73 91.2006 260.908 92.1029 259.882 92.1029C259.28 92.1029 258.739 91.8033 258.417 91.3309C258.157 90.9888 258.015 90.5577 258.015 90.1065V23.4096C258.015 20.7931 260.136 18.6721 262.752 18.6721H264.678C266.231 18.6721 267.49 17.4133 267.49 15.8605C267.49 14.3078 266.231 13.049 264.678 13.049H262.752C260.136 13.049 258.015 10.9279 258.015 8.31149V2.88009C258.015 1.28989 256.726 0.000770569 255.136 0.000770569C253.545 0.000770569 252.256 1.28989 252.256 2.88009V89.5927C252.256 90.2369 252.312 90.8797 252.474 91.4825C253.158 94.6356 255.568 97.1018 258.578 97.6382C258.98 97.7259 259.423 97.7685 259.863 97.7685C260.365 97.7685 260.866 97.7259 261.348 97.6169C264.36 96.9728 266.751 94.4188 267.332 91.2006Z" fill="#100F0D"/>
<path d="M277.025 15.9285C277.025 14.3377 275.735 13.0481 274.145 13.0481C272.554 13.0481 271.264 14.3377 271.264 15.9285V94.3295C271.264 95.9203 272.554 97.2099 274.145 97.2099C275.735 97.2099 277.025 95.9203 277.025 94.3295V15.9285Z" fill="#100F0D"/>
<path d="M277.025 2.88048C277.025 1.28964 275.735 1.90735e-06 274.145 1.90735e-06C272.554 1.90735e-06 271.264 1.28964 271.264 2.88048V6.19763C271.264 7.78848 272.554 9.07811 274.145 9.07811C275.735 9.07811 277.025 7.78848 277.025 6.19763V2.88048Z" fill="#100F0D"/>
<path d="M214.257 183.345C214.257 184.438 213.415 185.34 212.391 185.34C211.366 185.34 210.547 184.438 210.547 183.345V139.27V129.829V123.152V114.205V113.388C210.547 112.297 211.366 111.394 212.391 111.394C212.631 111.394 212.853 111.436 213.054 111.521C213.755 111.822 214.257 112.552 214.257 113.388V183.345ZM216.927 107.378C215.823 106.5 214.493 105.939 213.034 105.813C212.82 105.795 212.605 105.771 212.391 105.771C208.193 105.771 204.784 109.419 204.784 113.907V135.986V145.428V182.83C204.784 185.254 205.786 187.466 207.373 188.966C208.717 190.233 210.463 191.007 212.391 191.007C214.177 191.007 215.804 190.339 217.111 189.245C218.874 187.72 220.021 185.407 220.021 182.83V113.907C220.021 111.245 218.793 108.859 216.927 107.378Z" fill="#100F0D"/>
<path d="M231.404 105.771C230.24 105.771 229.137 106.052 228.149 106.557C227.019 107.134 225.644 107.217 224.46 106.761C223.132 106.249 221.927 107.44 221.927 108.863V109.097C221.927 110.65 223.62 112.142 223.782 113.686C223.789 113.759 223.793 113.832 223.793 113.907V187.576C223.793 189.162 225.079 190.448 226.665 190.448C228.251 190.448 229.537 189.162 229.537 187.576V113.388C229.537 112.296 230.379 111.394 231.404 111.394C232.424 111.394 233.268 112.296 233.268 113.388V148.263C233.268 149.849 234.554 151.135 236.14 151.135C237.727 151.135 239.013 149.849 239.013 148.263V113.907C239.013 109.419 235.595 105.771 231.404 105.771Z" fill="#100F0D"/>
<path d="M252.258 182.83C252.258 183.922 251.433 184.802 250.411 184.802C249.382 184.802 248.548 183.968 248.548 182.939V109.167C248.548 107.576 247.258 106.286 245.667 106.286C244.075 106.286 242.786 107.576 242.786 109.167V183.448C242.786 187.314 245.92 190.448 249.786 190.448H250.411C254.609 190.448 258.02 186.776 258.02 182.293V109.167C258.02 107.576 256.73 106.286 255.139 106.286C253.548 106.286 252.258 107.576 252.258 109.167V182.83Z" fill="#100F0D"/>
<path d="M271.271 183.345C271.271 184.438 270.445 185.34 269.42 185.34C268.379 185.34 267.558 184.438 267.558 183.345V153.174C267.558 152.077 268.379 151.176 269.401 151.176C270.445 151.176 271.271 152.077 271.271 153.174V183.345ZM277.031 182.83V113.907C277.031 109.419 273.619 105.771 269.42 105.771C265.208 105.771 261.795 109.419 261.795 113.907V140.529C261.795 142.121 263.085 143.411 264.677 143.411C266.268 143.411 267.558 142.121 267.558 140.529V113.388C267.558 112.297 268.379 111.394 269.42 111.394C270.445 111.394 271.271 112.297 271.271 113.388V143.917C271.271 144.867 270.351 145.556 269.401 145.556C265.208 145.556 261.795 149.203 261.795 153.687V182.83C261.795 187.313 265.208 191.007 269.42 191.007C270.585 191.007 271.691 190.709 272.681 190.19C273.804 189.602 275.172 189.52 276.354 189.976C277.673 190.485 278.879 189.302 278.879 187.889V187.625C278.879 186.066 277.169 184.564 277.038 183.01C277.033 182.951 277.031 182.891 277.031 182.83Z" fill="#100F0D"/>
<path d="M286.567 93.2375L286.524 20.1513C286.524 19.0573 287.365 18.155 288.39 18.155C288.952 18.155 289.452 18.4332 289.796 18.8643C290.076 19.209 290.236 19.6576 290.236 20.1513V94.329C290.236 95.9202 291.526 97.2101 293.118 97.2101C294.709 97.2101 295.999 95.9202 295.999 94.329V20.6677C295.999 18.348 295.092 16.2652 293.629 14.7664C292.265 13.3716 290.419 12.5332 288.39 12.5332C287.806 12.5332 287.223 12.5996 286.684 12.7475C286.445 12.8043 286.211 12.8733 285.981 12.954C284.279 13.5516 282.281 13.6389 280.522 13.2413C279.651 13.027 278.913 13.7759 278.913 14.6735V16.9088C278.913 17.8829 279.843 18.6842 280.4 19.4834C280.618 19.8092 280.76 20.2378 280.76 20.6677V97.2101L280.804 182.829C280.804 187.312 284.216 191.008 288.412 191.008C292.608 191.008 296.044 187.312 296.044 182.829V118.782C296.044 117.19 294.754 115.9 293.163 115.9C291.571 115.9 290.281 117.19 290.281 118.782V183.345C290.281 184.437 289.437 185.34 288.412 185.34C287.39 185.34 286.567 184.437 286.567 183.345V116.648C286.567 114.03 288.689 111.909 291.306 111.909H293.233C294.786 111.909 296.044 110.65 296.044 109.097C296.044 107.545 294.786 106.286 293.233 106.286H291.306C288.689 106.286 286.567 104.164 286.567 101.547V93.2375Z" fill="#100F0D"/>
<path d="M307.426 105.771C306.489 105.771 305.577 105.093 305.577 104.156V96.1175C305.577 94.527 304.287 93.2376 302.697 93.2376C301.106 93.2376 299.817 94.527 299.817 96.1175V187.568C299.817 189.158 301.106 190.448 302.697 190.448C304.287 190.448 305.577 189.158 305.577 187.568V113.388C305.577 112.296 306.402 111.394 307.426 111.394C308.448 111.394 309.292 112.296 309.292 113.388V187.567C309.292 189.158 310.582 190.448 312.173 190.448C313.764 190.448 315.054 189.158 315.054 187.567V113.907C315.054 109.419 311.619 105.771 307.426 105.771Z" fill="#100F0D"/>
<path d="M318.827 187.988C318.827 189.346 319.928 190.447 321.286 190.447C322.645 190.447 323.746 189.346 323.746 187.988V183.83C323.746 182.472 322.645 181.371 321.286 181.371C319.928 181.371 318.827 182.472 318.827 183.83V187.988Z" fill="#100F0D"/>
<path d="M335.028 105.771C330.834 105.771 327.401 109.419 327.401 113.906V143.047C327.401 147.531 330.834 151.175 335.028 151.175C336.053 151.175 336.876 152.076 336.876 153.174V183.345C336.876 184.437 336.053 185.318 335.028 185.318C334.008 185.318 333.159 184.437 333.159 183.345V156.202C333.159 154.612 331.87 153.323 330.28 153.323C328.69 153.323 327.401 154.612 327.401 156.202V182.806C327.401 187.312 330.834 191.008 335.028 191.008C339.222 191.008 342.635 187.312 342.635 182.806V153.686C342.635 149.203 339.222 145.556 335.028 145.556C334.008 145.556 333.159 144.653 333.159 143.562V113.388C333.159 112.296 334.008 111.394 335.028 111.394C336.053 111.394 336.876 112.296 336.876 113.388V140.531C336.876 142.121 338.166 143.41 339.756 143.41C341.346 143.41 342.635 142.121 342.635 140.531V113.906C342.635 109.419 339.222 105.771 335.028 105.771Z" fill="#100F0D"/>
<path d="M361.647 109.167C361.647 107.576 360.357 106.286 358.766 106.286C357.175 106.286 355.885 107.576 355.885 109.167V143.518C355.885 144.612 355.061 145.512 354.036 145.512C353.007 145.512 352.172 144.677 352.172 143.648V96.1621C352.172 94.5719 350.883 93.2828 349.293 93.2828C347.703 93.2828 346.414 94.5719 346.414 96.1621V187.568C346.414 189.159 347.703 190.448 349.293 190.448C350.883 190.448 352.172 189.159 352.172 187.568V152.999C352.172 151.97 353.007 151.135 354.036 151.135C355.061 151.135 355.885 152.037 355.885 153.128V187.567C355.885 189.158 357.175 190.448 358.766 190.448C360.357 190.448 361.647 189.158 361.647 187.567V153.454C361.647 153.401 361.647 153.348 361.646 153.296C361.59 150.178 361.59 146.603 361.646 143.485C361.647 143.431 361.647 143.377 361.647 143.323V109.167Z" fill="#100F0D"/>
</svg>
