<svg width="169" height="181" viewBox="0 0 169 181" fill="none" xmlns="http://www.w3.org/2000/svg">
<path d="M66.9973 12.341L44.2805 36.6254C43.4563 37.5051 43.4563 38.9463 44.3004 39.8248C45.1011 40.7032 46.4493 40.7032 47.2723 39.8248L69.9904 15.5404C70.8134 14.6607 70.8134 13.2182 69.9904 12.3636C69.1685 11.4613 67.8203 11.4613 66.9973 12.341Z" fill="#100F0D"/>
<path d="M168.241 103.578V102.362L167.673 102.969L168.241 103.578Z" fill="#ED1D24"/>
<path d="M146.723 174.024L140.717 180.444H146.703L149.716 177.223C150.539 176.344 150.539 174.9 149.716 174.024C148.896 173.144 147.546 173.144 146.723 174.024Z" fill="#ED1D24"/>
<path d="M141.329 147.079L138.694 149.896C137.615 151.049 137.615 152.841 138.694 153.995L142.484 158.046C143.565 159.202 143.562 160.998 142.478 162.151L142.343 162.295C141.155 163.558 139.147 163.554 137.964 162.286L134.732 158.821C133.547 157.551 131.534 157.55 130.347 158.818L113.557 176.766C112.251 178.162 113.241 180.444 115.153 180.444C115.758 180.444 116.335 180.193 116.749 179.752L130.344 165.219C131.532 163.949 133.547 163.952 134.731 165.224L135.249 165.78C136.322 166.934 136.32 168.722 135.243 169.873L128.867 176.689C127.534 178.114 128.545 180.444 130.497 180.444C131.114 180.444 131.704 180.188 132.126 179.737L155.07 155.21C156.255 153.943 158.265 153.943 159.451 155.21L159.961 155.755C161.039 156.908 161.041 158.699 159.963 159.852L153.765 166.492C152.988 167.324 153.192 168.647 153.952 169.495C155.565 171.218 156.409 173.464 156.478 175.736C156.546 177.968 158.084 180.444 160.318 180.444H165.241C166.897 180.444 168.241 179.101 168.241 177.444V126.202C168.241 123.49 164.928 122.17 163.063 124.138L141.329 147.079Z" fill="#ED1D24"/>
<path d="M86.1969 173.303L79.5168 180.444H85.5017L89.1899 176.501C90.0106 175.622 90.0106 174.203 89.1899 173.326C88.3681 172.422 87.0187 172.422 86.1969 173.303Z" fill="#100F0D"/>
<path d="M73.2352 92.2679C72.4134 91.3681 71.0664 91.3681 70.2434 92.2466L17.5984 148.522C16.7755 149.4 16.7755 150.841 17.5984 151.743C18.4203 152.623 19.7685 152.623 20.5915 151.721L73.2352 95.4447C74.0582 94.5675 74.0582 93.1263 73.2352 92.2679Z" fill="#100F0D"/>
<path d="M57.9355 75.9138C57.1137 75.0353 55.7643 75.0353 54.9425 75.9138L0.000915527 134.643V141.042L57.9355 79.112C58.7562 78.2347 58.7562 76.7923 57.9355 75.9138Z" fill="#100F0D"/>
<path d="M102.578 105.058C101.24 106.489 98.9712 106.489 97.6332 105.058C96.4154 103.757 96.4156 101.733 97.6336 100.432L153.468 40.7708C154.289 39.8923 154.289 38.4499 153.468 37.5714C152.644 36.6929 151.297 36.6929 150.475 37.5714L94.9366 96.9162C93.6049 98.3392 91.3472 98.339 90.0157 96.9157C88.804 95.6205 88.8038 93.6077 90.0152 92.3123L145.437 33.0436C145.588 32.8866 145.712 32.7122 145.809 32.5266C146.561 31.0871 146.314 28.9304 147.423 27.7446L147.476 27.6886C148.677 26.405 150.775 26.4316 151.449 28.0551C151.993 29.3645 153.13 30.3737 154.459 30.8678C155.644 31.3084 156.756 32.03 157.704 33.0436C161.074 36.6478 161.074 42.5278 157.704 46.1332L102.578 105.058ZM113.114 112.404C111.969 113.628 110.029 113.63 108.882 112.409C107.834 111.294 107.832 109.558 108.877 108.44L111.722 105.399C112.87 104.171 114.819 104.174 115.964 105.405C117.003 106.521 117.001 108.251 115.959 109.364L113.114 112.404ZM92.7702 117.164L67.2032 144.493C65.871 145.917 63.6119 145.917 62.2798 144.492C61.0682 143.197 61.0679 141.184 62.2793 139.888L88.5356 111.8C89.3586 110.921 89.3586 109.481 88.5356 108.601C87.7138 107.724 86.3632 107.724 85.5426 108.601L30.0266 167.944C28.6938 169.368 26.4348 169.371 25.0986 167.949C23.8785 166.651 23.8761 164.629 25.0931 163.328L80.5272 104.073C80.6688 103.922 80.7859 103.754 80.8787 103.576C81.627 102.138 81.3833 99.9768 82.4877 98.7904L82.5487 98.7249C83.7425 97.4423 85.848 97.4767 86.5253 99.0927C87.0723 100.398 88.2033 101.404 89.5296 101.898C90.7139 102.338 91.8243 103.06 92.7702 104.073C96.1642 107.701 96.1442 113.56 92.7702 117.164ZM13.3415 156.291C9.96742 152.688 9.9897 146.765 13.3614 143.158L65.2279 87.7192C68.5984 84.1137 74.0992 84.1137 77.4908 87.7192C80.8649 91.3434 80.8649 97.2033 77.4709 100.831L25.6079 156.247C22.2339 159.874 16.7343 159.898 13.3415 156.291ZM141.047 21.3822C142.385 19.9515 144.654 19.9514 145.992 21.3818C147.21 22.6834 147.21 24.7062 145.992 26.0078L87.2985 88.7471C85.9615 90.1763 83.6935 90.174 82.3594 88.7421C81.1488 87.4428 81.1507 85.4282 82.3637 84.1312L141.047 21.3822ZM150.87 10.8897C152.206 9.45674 154.476 9.45488 155.815 10.8857C157.032 12.1862 157.032 14.2074 155.815 15.508L153.623 17.8508C152.285 19.2815 150.014 19.2785 148.68 17.8443C147.471 16.5455 147.472 14.5335 148.682 13.2361L150.87 10.8897ZM166.356 61.7794C167.567 60.4829 168.241 58.7746 168.241 57.0002V7.60352C168.241 3.73752 165.107 0.603516 161.241 0.603516H142.081C140.216 0.603516 138.435 1.37622 137.162 2.73769L136.671 3.26187C134.525 5.55647 134.525 9.12238 136.671 11.417L138.509 13.3808C139.621 14.57 139.621 16.418 138.509 17.6073C137.286 18.9145 135.213 18.9146 133.99 17.6074L132.435 15.9448C130.371 13.7382 126.871 13.738 124.807 15.9445L74.8799 69.3135C74.0569 70.192 74.0569 71.6332 74.8799 72.5342C75.7006 73.3914 77.0488 73.3914 77.8718 72.5117L126.149 20.9076C127.486 19.4775 129.755 19.4778 131.093 20.9083C132.31 22.2098 132.309 24.232 131.092 25.533L82.8872 77.0395C79.5143 80.6674 73.9948 80.69 70.6219 77.0846C67.2502 73.4578 67.2713 67.5553 70.6419 63.9524L125.834 4.93343C127.372 3.28954 126.206 0.603516 123.955 0.603516C122.714 0.603516 121.684 1.51122 121.183 2.64769C120.766 3.59515 120.186 4.48224 119.452 5.26663L93.8947 32.586C92.5576 34.0153 90.2894 34.0124 88.956 32.5798C87.7468 31.2807 87.7494 29.2673 88.9618 27.9713L111.11 4.29596C112.421 2.8943 111.427 0.603516 109.508 0.603516C108.901 0.603516 108.321 0.855301 107.906 1.2989L56.7193 56.0369C55.3817 57.4673 53.113 57.4677 51.7749 56.0377C50.5571 54.7363 50.557 52.7137 51.7746 51.4121L95.8029 4.34709C97.1323 2.92601 96.1246 0.603516 94.1787 0.603516C93.5629 0.603516 92.9746 0.858826 92.5541 1.30864L52.3085 44.3524C52.1612 44.5057 52.0403 44.676 51.9454 44.8575C51.1906 46.3008 51.4268 48.494 50.314 49.6833C49.1106 50.9693 46.9877 50.9639 46.3043 49.3406C45.7533 48.0318 44.6154 47.0202 43.2814 46.5331C42.0916 46.0986 40.9671 45.386 40.0221 44.375C36.6492 40.7708 36.6715 34.8683 40.0432 31.2415L61.9605 7.81187C65.3322 4.20895 70.854 4.20895 74.2258 7.81187C74.9536 8.62421 76.295 8.79939 77.0401 8.00288L80.5212 4.28183C81.8274 2.88553 80.8373 0.603516 78.9253 0.603516C78.3205 0.603516 77.7428 0.854111 77.3296 1.29567L76.9234 1.72972C75.52 3.22943 73.1406 3.22905 71.7377 1.72888C71.0663 1.01099 70.1273 0.603516 69.1444 0.603516H65.8194C63.8819 0.603516 62.0311 1.40651 60.7075 2.82137L33.8111 31.5722C32.4739 33.0016 30.2057 32.999 28.8718 31.5666C27.6617 30.2672 27.664 28.2529 28.8771 26.9563L50.0888 4.28308C51.3956 2.88634 50.4052 0.603516 48.4925 0.603516C47.8874 0.603516 47.3094 0.854309 46.896 1.29619L26.2029 23.417C24.8651 24.8472 22.5965 24.8475 21.2582 23.4177C20.0399 22.1161 20.0397 20.0927 21.2577 18.7908L34.8318 4.28169C36.138 2.88548 35.148 0.603516 33.236 0.603516C32.6313 0.603516 32.0535 0.854141 31.6403 1.29576L18.5734 15.2616C17.2355 16.6915 14.967 16.6915 13.6292 15.2614C12.4117 13.96 12.4117 11.9375 13.6292 10.636L14.7999 9.38463C17.9182 6.0513 15.5546 0.603516 10.9901 0.603516H6.96386C3.11783 0.603516 0 3.72134 0 7.56738V107.006C0 113.355 7.77298 116.425 12.111 111.789L63.0069 57.4028C64.3443 55.9737 66.6124 55.9766 67.9462 57.4092C69.1558 58.7085 69.1535 60.7225 67.9408 62.0189L61.9858 68.3852C61.2084 69.2163 61.4093 70.5401 62.1715 71.385C65.5655 74.9905 65.5655 80.8705 62.1715 84.4746L5.95812 144.587C5.22023 145.376 3.96869 145.376 3.23075 144.587C2.07384 143.35 0 144.169 0 145.862V173.444C0 177.31 3.13401 180.444 7 180.444H36.6467C38.5846 180.444 40.4357 179.641 41.7594 178.225L99.0659 116.946C100.404 115.515 102.673 115.515 104.011 116.945C105.229 118.247 105.229 120.27 104.011 121.571L52.3765 176.766C51.0703 178.162 52.0604 180.444 53.9723 180.444C54.5772 180.444 55.155 180.193 55.5682 179.752L106.694 125.099C108.032 123.669 110.301 123.669 111.64 125.099C112.858 126.401 112.858 128.425 111.639 129.726L67.6757 176.702C66.3467 178.122 67.3536 180.444 69.2987 180.444C69.914 180.444 70.5017 180.189 70.922 179.74L81.179 168.774C84.5531 165.169 90.0515 165.169 93.4255 168.797C94.1924 169.586 95.5044 169.772 96.256 168.968L119.137 144.511C119.958 143.634 119.958 142.19 119.137 141.312C118.314 140.435 116.965 140.435 116.145 141.312L95.9921 162.833C94.6595 164.256 92.401 164.255 91.0693 162.831C89.8572 161.535 89.8573 159.522 91.0695 158.226L111.127 136.783C114.5 133.179 120.001 133.179 123.372 136.783C126.744 140.388 126.744 146.268 123.372 149.872L98.276 176.7C96.9465 178.121 97.9542 180.444 99.9003 180.444C100.516 180.444 101.104 180.189 101.525 179.739L141.961 136.515L164.931 112.297C165.754 111.417 165.754 110 164.931 109.12C164.122 108.254 162.749 108.254 161.939 109.119L136.339 136.484C135.001 137.915 132.732 137.914 131.394 136.484C130.177 135.182 130.177 133.16 131.395 131.859L167.641 93.1124C168.027 92.7004 168.241 92.1574 168.241 91.5933C168.241 89.5764 165.772 88.6013 164.394 90.0741L163.554 90.971C162.486 92.1134 160.674 92.1153 159.603 90.9753L159.114 90.4549C157.893 89.1567 157.891 87.1342 159.108 85.8332L167.65 76.7038C168.03 76.2978 168.241 75.7627 168.241 75.2068C168.241 73.2187 165.806 72.2583 164.449 73.7111L153.847 85.0599C153.025 85.9384 153.025 87.3808 153.847 88.2605C157.217 91.8635 157.217 97.7447 153.847 101.348L131.928 124.777C128.557 128.405 123.035 128.427 119.664 124.824C116.27 121.217 116.29 115.294 119.684 111.69L139.416 90.5966C140.749 89.1721 143.008 89.1696 144.343 90.5913C145.563 91.8889 145.565 93.9103 144.348 95.2106L123.92 117.049C123.098 117.929 123.098 119.37 123.92 120.272C124.743 121.149 126.07 121.128 126.912 120.248L149.611 95.9852C150.432 95.1055 150.432 93.6681 149.611 92.7883C146.238 89.1841 146.238 83.3029 149.611 79.6987L166.356 61.7794Z" fill="#100F0D"/>
</svg>
